<svg id="a0b36104-efc5-4c3a-82bf-a6fc37fe1711" data-name="Слой 1" xmlns="http://www.w3.org/2000/svg" width="70" height="69.46" viewBox="0 0 70 69.46"><path d="M33.61,46s0,.06,0,.09V63.18a.67.67,0,0,0,.67.67.68.68,0,0,0,.68-.67V46.11a.28.28,0,0,1,0-.09,2.5,2.5,0,0,1-1.33,0Z" fill="#080808"/><path d="M5.27,62.8a4.91,4.91,0,0,1,.67.05.09.09,0,0,1,0-.05V52.7c0-.22-.31-.4-.68-.4s-.67.18-.67.4V62.8s0,0,0,.05A4.89,4.89,0,0,1,5.27,62.8Z" fill="#080808"/><path d="M63.27,62.8a4.91,4.91,0,0,1,.67.05.09.09,0,0,1,0-.05V52.7c0-.22-.31-.4-.68-.4s-.67.18-.67.4V62.8s0,0,0,.05A4.89,4.89,0,0,1,63.27,62.8Z" fill="#080808"/><rect y="58.46" width="11" height="11" rx="2" fill="#2ab675"/><rect x="29" y="58.46" width="11" height="11" rx="2" fill="#fe6d6e"/><rect x="58" y="58.46" width="11" height="11" rx="2" fill="#d2d5dd"/><path d="M34.11,53.41H63.27a.69.69,0,0,0,.68-.68.68.68,0,0,0-.68-.67H34.11a2.26,2.26,0,0,1,0,1.33Z" fill="#080808"/><path d="M34.34,52.74a2.5,2.5,0,0,1,.09-.66H5.27a.67.67,0,0,0-.67.67.68.68,0,0,0,.67.68H34.43A2.52,2.52,0,0,1,34.34,52.74Z" fill="#080808"/><path d="M44.41,14.11h0L46,11.43l-1.9-1.1L42.53,13h0a13.66,13.66,0,0,1,1.85,1.07Z" fill="#f45858"/><path d="M24.54,14.11a12.85,12.85,0,0,1,1.9-1.1h0l-1.59-2.78-2,1.13,1.59,2.77Z" fill="#f45858"/><circle cx="34.5" cy="29.7" r="18.94" fill="#3ea2e5"/><circle cx="34.5" cy="29.7" r="14.56" fill="#dfeef4"/><circle cx="34.5" cy="29.7" r="2.4" fill="#f45858"/><path d="M30.88,4.33h7.24V7.5H30.88Z" fill="#f45858"/><path d="M32.92,7.5v3.33H33c.5,0,1-.07,1.51-.07s1,0,1.51.07h.07V7.5Z" fill="#f45858"/><path d="M35.17,15.16v2.39a.67.67,0,0,1-1.34,0V15.16l.67,0Z" fill="#080808"/><path d="M35.17,41.86v2.38c-.22,0-.44,0-.67,0s-.45,0-.67,0V41.86a.67.67,0,0,1,1.34,0Z" fill="#080808"/><path d="M49.06,29.7c0,.23,0,.45,0,.67H46.65a.67.67,0,0,1,0-1.34H49C49.05,29.25,49.06,29.47,49.06,29.7Z" fill="#080808"/><path d="M23,29.7a.67.67,0,0,1-.67.67H20c0-.22,0-.44,0-.67s0-.45,0-.67h2.39A.67.67,0,0,1,23,29.7Z" fill="#080808"/><path d="M28.69,19.79a.64.64,0,0,1-.91-.24l-1.21-2.06c.37-.24.76-.47,1.16-.68l1.21,2.07A.67.67,0,0,1,28.69,19.79Z" fill="#080808"/><path d="M42.43,41.91a12.14,12.14,0,0,1-1.16.68l-1.21-2.06a.68.68,0,0,1,.25-.92.66.66,0,0,1,.91.24h0Z" fill="#080808"/><path d="M47.39,22.93l-2.06,1.21a.68.68,0,0,1-.92-.24.67.67,0,0,1,.24-.92h0l2.06-1.21C47,22.14,47.18,22.53,47.39,22.93Z" fill="#080808"/><path d="M24.35,36.43l-2.06,1.21c-.24-.38-.47-.76-.68-1.16l2.06-1.21a.67.67,0,0,1,.68,1.16Z" fill="#080808"/><path d="M42.37,17.45l-1.2,2.07a.68.68,0,0,1-.92.24.67.67,0,0,1-.25-.91h0l1.19-2.07C41.6,17,42,17.2,42.37,17.45Z" fill="#080808"/><path d="M29,40.56,27.8,42.63c-.4-.21-.79-.43-1.17-.67l1.2-2.07a.67.67,0,1,1,1.16.67Z" fill="#080808"/><path d="M47.43,36.41c-.21.4-.43.78-.68,1.16l-2.07-1.2a.67.67,0,0,1,.68-1.16Z" fill="#080808"/><path d="M24.56,24a.65.65,0,0,1-.92.24L21.57,23a12.14,12.14,0,0,1,.68-1.16L24.32,23A.67.67,0,0,1,24.56,24Z" fill="#080808"/><path d="M44,29H36.8a2.32,2.32,0,0,1,0,1.33H44a.68.68,0,0,0,.67-.68A.67.67,0,0,0,44,29Z" fill="#080808"/><path d="M34.5,27.3a2.45,2.45,0,0,1,.66.1.31.31,0,0,0,0-.1V20.24a.67.67,0,1,0-1.34,0V27.3a.31.31,0,0,0,0,.1A2.45,2.45,0,0,1,34.5,27.3Z" fill="#080808"/><path d="M45.74.46a.45.45,0,0,1,.14-.32A.45.45,0,0,1,46.21,0h4a3.84,3.84,0,0,1,1.21.18,2.11,2.11,0,0,1,.94.65A1.71,1.71,0,0,1,52.71,2a1.61,1.61,0,0,1-.65,1.29A1.7,1.7,0,0,1,53,4.89a1.83,1.83,0,0,1-.75,1.56A3,3,0,0,1,50.41,7h-4.2a.44.44,0,0,1-.33-.13.45.45,0,0,1-.14-.33Zm1.84,2.23H50.2a.69.69,0,0,0,.49-.18A.69.69,0,0,0,50.87,2a.68.68,0,0,0-.18-.5.69.69,0,0,0-.49-.18H47.58Zm0,3h2.8A.71.71,0,0,0,51,5.46a.87.87,0,0,0,.2-.62.85.85,0,0,0-.2-.61A.72.72,0,0,0,50.38,4h-2.8Z"/><path d="M54.34,6.4a2.68,2.68,0,0,1-.75-2.06,2.7,2.7,0,0,1,.76-2.07,3.41,3.41,0,0,1,4.19,0,2.71,2.71,0,0,1,.75,2.06v.28a.31.31,0,0,1-.08.22.29.29,0,0,1-.22.09H55.31a1.16,1.16,0,0,0,.35.82,1.34,1.34,0,0,0,.9.25,1.18,1.18,0,0,0,1-.33.7.7,0,0,1,.56-.26h.73a.29.29,0,0,1,.22.09.36.36,0,0,1,.08.23q0,1.38-2.67,1.38A2.94,2.94,0,0,1,54.34,6.4Zm1-2.59h2.27c0-.76-.41-1.15-1.13-1.15S55.34,3.05,55.3,3.81Z"/><path d="M60.19,4.9V.3a.26.26,0,0,1,.09-.21A.26.26,0,0,1,60.49,0h1.09a.29.29,0,0,1,.22.09.29.29,0,0,1,.08.21V1.93h1.36a.33.33,0,0,1,.22.08.33.33,0,0,1,.08.22v.58a.33.33,0,0,1-.08.22.33.33,0,0,1-.22.08H61.88V4.92a1.19,1.19,0,0,0,.23.78.78.78,0,0,0,.63.28l.35,0,.32,0h.18a.28.28,0,0,1,.3.29v.51a.29.29,0,0,1-.08.19.4.4,0,0,1-.22.09,6.59,6.59,0,0,1-1.3.1C60.89,7.1,60.19,6.37,60.19,4.9Z"/><path d="M65,6.65a1.46,1.46,0,0,1-.65-1.27A1.43,1.43,0,0,1,65,4.12a2.94,2.94,0,0,1,1.67-.44h1.62a1.05,1.05,0,0,0-.24-.79,1.1,1.1,0,0,0-.76-.23,1.2,1.2,0,0,0-1,.33.66.66,0,0,1-.56.26h-.72a.33.33,0,0,1-.22-.08A.29.29,0,0,1,64.77,3c0-.93.89-1.4,2.66-1.4a3.12,3.12,0,0,1,1.87.52A1.88,1.88,0,0,1,70,3.68v3a.29.29,0,0,1-.08.22.3.3,0,0,1-.21.08h-.95a.32.32,0,0,1-.21-.08.29.29,0,0,1-.08-.22V6.55a3,3,0,0,1-1.77.55A2.86,2.86,0,0,1,65,6.65Zm1-1.27a.54.54,0,0,0,.21.44.91.91,0,0,0,.58.17,2.76,2.76,0,0,0,1.46-.44V4.79H66.81a.81.81,0,0,0-.54.17A.53.53,0,0,0,66.07,5.38Z"/></svg>